# Blender 5.1.2
# www.blender.org
mtllib CraftTable.mtl
o rounded_rect_prism_120x65x94_r10
v 0.600000 0.000000 -0.225000
v 0.599519 0.000000 -0.234802
v 0.599519 0.940000 -0.234802
v 0.600000 0.940000 -0.225000
v 0.598079 0.000000 -0.244509
v 0.598079 0.940000 -0.244509
v 0.595694 0.000000 -0.254029
v 0.595694 0.940000 -0.254029
v 0.592388 0.000000 -0.263268
v 0.592388 0.940000 -0.263268
v 0.588192 0.000000 -0.272140
v 0.588192 0.940000 -0.272140
v 0.583147 0.000000 -0.280557
v 0.583147 0.940000 -0.280557
v 0.577301 0.000000 -0.288439
v 0.577301 0.940000 -0.288439
v 0.570711 0.000000 -0.295711
v 0.570711 0.940000 -0.295711
v 0.563439 0.000000 -0.302301
v 0.563439 0.940000 -0.302301
v 0.555557 0.000000 -0.308147
v 0.555557 0.940000 -0.308147
v 0.547140 0.000000 -0.313192
v 0.547140 0.940000 -0.313192
v 0.538269 0.000000 -0.317388
v 0.538269 0.940000 -0.317388
v 0.529029 0.000000 -0.320694
v 0.529029 0.940000 -0.320694
v 0.519509 0.000000 -0.323079
v 0.519509 0.940000 -0.323079
v 0.509802 0.000000 -0.324519
v 0.509802 0.940000 -0.324519
v 0.500000 0.000000 -0.325000
v 0.500000 0.940000 -0.325000
v -0.509802 0.000000 -0.324519
v -0.509802 0.940000 -0.324519
v -0.519509 0.000000 -0.323079
v -0.519509 0.940000 -0.323079
v -0.529029 0.000000 -0.320694
v -0.529029 0.940000 -0.320694
v -0.538269 0.000000 -0.317388
v -0.538269 0.940000 -0.317388
v -0.547140 0.000000 -0.313192
v -0.547140 0.940000 -0.313192
v -0.555557 0.000000 -0.308147
v -0.555557 0.940000 -0.308147
v -0.563439 0.000000 -0.302301
v -0.563439 0.940000 -0.302301
v -0.570711 0.000000 -0.295711
v -0.570711 0.940000 -0.295711
v -0.577301 0.000000 -0.288439
v -0.577301 0.940000 -0.288439
v -0.583147 0.000000 -0.280557
v -0.583147 0.940000 -0.280557
v -0.588192 0.000000 -0.272140
v -0.588192 0.940000 -0.272140
v -0.592388 0.000000 -0.263268
v -0.592388 0.940000 -0.263268
v -0.595694 0.000000 -0.254029
v -0.595694 0.940000 -0.254029
v -0.598079 0.000000 -0.244509
v -0.598079 0.940000 -0.244509
v -0.599519 0.000000 -0.234802
v -0.599519 0.940000 -0.234802
v -0.600000 0.000000 -0.225000
v -0.600000 0.940000 -0.225000
v -0.599519 0.000000 0.234802
v -0.599519 0.940000 0.234802
v -0.598079 0.000000 0.244509
v -0.598079 0.940000 0.244509
v -0.595694 0.000000 0.254029
v -0.595694 0.940000 0.254029
v -0.592388 0.000000 0.263268
v -0.592388 0.940000 0.263268
v -0.588192 0.000000 0.272140
v -0.588192 0.940000 0.272140
v -0.583147 0.000000 0.280557
v -0.583147 0.940000 0.280557
v -0.577301 0.000000 0.288439
v -0.577301 0.940000 0.288439
v -0.570711 0.000000 0.295711
v -0.570711 0.940000 0.295711
v -0.563439 0.000000 0.302301
v -0.563439 0.940000 0.302301
v -0.555557 0.000000 0.308147
v -0.555557 0.940000 0.308147
v -0.547140 0.000000 0.313192
v -0.547140 0.940000 0.313192
v -0.538269 0.000000 0.317388
v -0.538269 0.940000 0.317388
v -0.529029 0.000000 0.320694
v -0.529029 0.940000 0.320694
v -0.519509 0.000000 0.323079
v -0.519509 0.940000 0.323079
v -0.509802 0.000000 0.324519
v -0.509802 0.940000 0.324519
v -0.500000 0.000000 0.325000
v -0.500000 0.940000 0.325000
v 0.509802 0.000000 0.324519
v 0.509802 0.940000 0.324519
v 0.519509 0.000000 0.323079
v 0.519509 0.940000 0.323079
v 0.529029 0.000000 0.320694
v 0.529029 0.940000 0.320694
v 0.538269 0.000000 0.317388
v 0.538269 0.940000 0.317388
v 0.547140 0.000000 0.313192
v 0.547140 0.940000 0.313192
v 0.555557 0.000000 0.308147
v 0.555557 0.940000 0.308147
v 0.563439 0.000000 0.302301
v 0.563439 0.940000 0.302301
v 0.570711 0.000000 0.295711
v 0.570711 0.940000 0.295711
v 0.577301 0.000000 0.288439
v 0.577301 0.940000 0.288439
v 0.583147 0.000000 0.280557
v 0.583147 0.940000 0.280557
v 0.588192 0.000000 0.272140
v 0.588192 0.940000 0.272140
v 0.592388 0.000000 0.263268
v 0.592388 0.940000 0.263268
v 0.595694 0.000000 0.254029
v 0.595694 0.940000 0.254029
v 0.598079 0.000000 0.244509
v 0.598079 0.940000 0.244509
v 0.599519 0.000000 0.234802
v 0.599519 0.940000 0.234802
v 0.600000 0.000000 0.225000
v 0.600000 0.940000 0.225000
v 0.000000 0.940000 0.000000
v 0.000000 0.000000 0.000000
v -0.460000 0.893641 -0.324542
v 0.460000 0.037235 -0.324981
v 0.460000 0.000000 -0.324981
v 0.440000 0.000000 -0.324971
v 0.440000 0.055852 -0.324971
v -0.440000 0.000000 -0.324552
v -0.440000 0.875023 -0.324552
v -0.460000 0.000000 -0.324542
v -0.440000 0.940000 -0.324552
v -0.460000 0.940000 -0.324542
v 0.460000 0.940000 -0.324981
v 0.440000 0.940000 -0.324971
v -0.460000 0.037235 0.324981
v -0.460000 0.000000 0.324981
v -0.440000 0.000000 0.324971
v 0.460000 0.000000 0.324542
v 0.440000 0.000000 0.324552
v -0.440000 0.055853 0.324971
v 0.460000 0.893641 0.324542
v 0.440000 0.875024 0.324552
v -0.440000 0.940000 0.324971
v 0.460000 0.940000 0.324542
v 0.440000 0.940000 0.324552
v -0.460000 0.940000 0.324981
v -0.460000 0.940000 -0.305000
v -0.440000 0.940000 -0.305000
v 0.440000 0.940000 -0.305000
v 0.460000 0.940000 -0.305000
v 0.440000 0.940000 0.305000
v 0.460000 0.940000 0.305000
v -0.460000 0.940000 0.305000
v -0.440000 0.940000 0.305000
v -0.460000 0.000000 -0.305000
v -0.440000 0.000000 -0.305000
v 0.440000 0.000000 -0.305000
v 0.460000 0.000000 -0.305000
v 0.460000 0.000000 0.305000
v 0.440000 0.000000 0.305000
v -0.460000 0.000000 0.305000
v -0.440000 0.000000 0.305000
vn 0.9988 -0.0000 -0.0491
vn 0.9892 -0.0000 -0.1467
vn 0.9700 -0.0000 -0.2430
vn 0.9415 -0.0000 -0.3369
vn 0.9040 -0.0000 -0.4276
vn 0.8577 -0.0000 -0.5141
vn 0.8032 -0.0000 -0.5957
vn 0.7409 -0.0000 -0.6716
vn 0.7410 -0.0000 -0.6716
vn 0.6716 -0.0000 -0.7410
vn 0.5957 -0.0000 -0.8032
vn 0.5141 -0.0000 -0.8577
vn 0.4276 -0.0000 -0.9040
vn 0.3369 -0.0000 -0.9415
vn 0.2430 -0.0000 -0.9700
vn 0.1467 -0.0000 -0.9892
vn 0.0491 -0.0000 -0.9988
vn -0.0005 -0.0000 -1.0000
vn -0.1467 -0.0000 -0.9892
vn -0.2430 -0.0000 -0.9700
vn -0.3369 -0.0000 -0.9415
vn -0.4276 -0.0000 -0.9040
vn -0.5141 -0.0000 -0.8577
vn -0.5957 -0.0000 -0.8032
vn -0.6716 -0.0000 -0.7410
vn -0.7410 -0.0000 -0.6716
vn -0.7409 -0.0000 -0.6716
vn -0.8032 -0.0000 -0.5957
vn -0.8577 -0.0000 -0.5141
vn -0.9040 -0.0000 -0.4276
vn -0.9415 -0.0000 -0.3369
vn -0.9700 -0.0000 -0.2430
vn -0.9892 -0.0000 -0.1467
vn -0.9988 -0.0000 -0.0491
vn -1.0000 -0.0000 0.0010
vn -0.9892 -0.0000 0.1467
vn -0.9700 -0.0000 0.2430
vn -0.9415 -0.0000 0.3369
vn -0.9040 -0.0000 0.4276
vn -0.8577 -0.0000 0.5141
vn -0.8032 -0.0000 0.5957
vn -0.7409 -0.0000 0.6716
vn -0.7410 -0.0000 0.6716
vn -0.6716 -0.0000 0.7410
vn -0.5957 -0.0000 0.8032
vn -0.5141 -0.0000 0.8577
vn -0.4276 -0.0000 0.9040
vn -0.3369 -0.0000 0.9415
vn -0.2430 -0.0000 0.9700
vn -0.1467 -0.0000 0.9892
vn -0.0491 -0.0000 0.9988
vn 0.0005 -0.0000 1.0000
vn 0.1467 -0.0000 0.9892
vn 0.2430 -0.0000 0.9700
vn 0.3369 -0.0000 0.9415
vn 0.4276 -0.0000 0.9040
vn 0.5141 -0.0000 0.8577
vn 0.5957 -0.0000 0.8032
vn 0.6716 -0.0000 0.7410
vn 0.7410 -0.0000 0.6716
vn 0.7409 -0.0000 0.6716
vn 0.8032 -0.0000 0.5957
vn 0.8577 -0.0000 0.5141
vn 0.9040 -0.0000 0.4276
vn 0.9415 -0.0000 0.3369
vn 0.9700 -0.0000 0.2430
vn 0.9892 -0.0000 0.1467
vn 0.9988 -0.0000 0.0491
vn 1.0000 -0.0000 -0.0000
vn -0.0000 1.0000 -0.0000
vn -0.0000 -1.0000 -0.0000
vn -0.0000 -0.0000 1.0000
vn -1.0000 -0.0000 -0.0000
vn -0.0000 -0.0000 -1.0000
s 0
usemtl 
f 1//1 2//1 3//1
f 1//1 3//1 4//1
f 2//2 5//2 6//2
f 2//2 6//2 3//2
f 5//3 7//3 8//3
f 5//3 8//3 6//3
f 7//4 9//4 10//4
f 7//4 10//4 8//4
f 9//5 11//5 12//5
f 9//5 12//5 10//5
f 11//6 13//6 14//6
f 11//6 14//6 12//6
f 13//7 15//7 16//7
f 13//7 16//7 14//7
f 15//8 17//8 18//8
f 15//9 18//9 16//9
f 17//10 19//10 20//10
f 17//10 20//10 18//10
f 19//11 21//11 22//11
f 19//11 22//11 20//11
f 21//12 23//12 24//12
f 21//12 24//12 22//12
f 23//13 25//13 26//13
f 23//13 26//13 24//13
f 25//14 27//14 28//14
f 25//14 28//14 26//14
f 27//15 29//15 30//15
f 27//15 30//15 28//15
f 29//16 31//16 32//16
f 29//16 32//16 30//16
f 31//17 33//17 34//17
f 31//17 34//17 32//17
f 134//18 33//18 135//18
f 137//18 136//18 138//18 139//18
f 35//18 36//18 133//18 140//18
f 36//18 142//18 133//18
f 137//18 139//18 141//18 144//18
f 34//18 33//18 134//18 143//18
f 35//19 37//19 38//19
f 35//19 38//19 36//19
f 37//20 39//20 40//20
f 37//20 40//20 38//20
f 39//21 41//21 42//21
f 39//21 42//21 40//21
f 41//22 43//22 44//22
f 41//22 44//22 42//22
f 43//23 45//23 46//23
f 43//23 46//23 44//23
f 45//24 47//24 48//24
f 45//24 48//24 46//24
f 47//25 49//25 50//25
f 47//25 50//25 48//25
f 49//26 51//26 52//26
f 49//27 52//27 50//27
f 51//28 53//28 54//28
f 51//28 54//28 52//28
f 53//29 55//29 56//29
f 53//29 56//29 54//29
f 55//30 57//30 58//30
f 55//30 58//30 56//30
f 57//31 59//31 60//31
f 57//31 60//31 58//31
f 59//32 61//32 62//32
f 59//32 62//32 60//32
f 61//33 63//33 64//33
f 61//33 64//33 62//33
f 63//34 65//34 66//34
f 63//34 66//34 64//34
f 65//35 67//35 68//35
f 65//35 68//35 66//35
f 67//36 69//36 70//36
f 67//36 70//36 68//36
f 69//37 71//37 72//37
f 69//37 72//37 70//37
f 71//38 73//38 74//38
f 71//38 74//38 72//38
f 73//39 75//39 76//39
f 73//39 76//39 74//39
f 75//40 77//40 78//40
f 75//40 78//40 76//40
f 77//41 79//41 80//41
f 77//41 80//41 78//41
f 79//42 81//42 82//42
f 79//43 82//43 80//43
f 81//44 83//44 84//44
f 81//44 84//44 82//44
f 83//45 85//45 86//45
f 83//45 86//45 84//45
f 85//46 87//46 88//46
f 85//46 88//46 86//46
f 87//47 89//47 90//47
f 87//47 90//47 88//47
f 89//48 91//48 92//48
f 89//48 92//48 90//48
f 91//49 93//49 94//49
f 91//49 94//49 92//49
f 93//50 95//50 96//50
f 93//50 96//50 94//50
f 95//51 97//51 98//51
f 95//51 98//51 96//51
f 97//52 146//52 145//52
f 148//52 99//52 100//52 151//52
f 152//52 150//52 147//52 149//52
f 154//52 151//52 100//52
f 153//52 150//52 152//52 155//52
f 98//52 97//52 145//52 156//52
f 99//53 101//53 102//53
f 99//53 102//53 100//53
f 101//54 103//54 104//54
f 101//54 104//54 102//54
f 103//55 105//55 106//55
f 103//55 106//55 104//55
f 105//56 107//56 108//56
f 105//56 108//56 106//56
f 107//57 109//57 110//57
f 107//57 110//57 108//57
f 109//58 111//58 112//58
f 109//58 112//58 110//58
f 111//59 113//59 114//59
f 111//59 114//59 112//59
f 113//60 115//60 116//60
f 113//61 116//61 114//61
f 115//62 117//62 118//62
f 115//62 118//62 116//62
f 117//63 119//63 120//63
f 117//63 120//63 118//63
f 119//64 121//64 122//64
f 119//64 122//64 120//64
f 121//65 123//65 124//65
f 121//65 124//65 122//65
f 123//66 125//66 126//66
f 123//66 126//66 124//66
f 125//67 127//67 128//67
f 125//67 128//67 126//67
f 127//68 129//68 130//68
f 127//68 130//68 128//68
f 129//69 1//69 4//69
f 129//69 4//69 130//69
f 131//70 4//70 3//70
f 131//70 3//70 6//70
f 131//70 6//70 8//70
f 131//70 8//70 10//70
f 131//70 10//70 12//70
f 131//70 12//70 14//70
f 131//70 14//70 16//70
f 131//70 16//70 18//70
f 131//70 18//70 20//70
f 22//70 131//70 20//70
f 24//70 131//70 22//70
f 26//70 131//70 24//70
f 28//70 131//70 26//70
f 30//70 131//70 28//70
f 32//70 131//70 30//70
f 34//70 131//70 32//70
f 142//70 36//70 131//70 34//70 143//70 160//70 159//70 144//70 141//70 158//70 157//70
f 36//70 38//70 131//70
f 38//70 40//70 131//70
f 40//70 42//70 131//70
f 42//70 44//70 131//70
f 44//70 46//70 131//70
f 46//70 48//70 131//70
f 131//70 48//70 50//70
f 131//70 50//70 52//70
f 131//70 52//70 54//70
f 131//70 54//70 56//70
f 131//70 56//70 58//70
f 131//70 58//70 60//70
f 131//70 60//70 62//70
f 131//70 62//70 64//70
f 131//70 64//70 66//70
f 131//70 66//70 68//70
f 131//70 68//70 70//70
f 131//70 70//70 72//70
f 131//70 72//70 74//70
f 131//70 74//70 76//70
f 131//70 76//70 78//70
f 131//70 78//70 80//70
f 131//70 80//70 82//70
f 131//70 82//70 84//70
f 84//70 86//70 131//70
f 86//70 88//70 131//70
f 88//70 90//70 131//70
f 90//70 92//70 131//70
f 92//70 94//70 131//70
f 94//70 96//70 131//70
f 96//70 98//70 131//70
f 154//70 100//70 131//70 98//70 156//70 163//70 164//70 153//70 155//70 161//70 162//70
f 131//70 100//70 102//70
f 131//70 102//70 104//70
f 131//70 104//70 106//70
f 131//70 106//70 108//70
f 131//70 108//70 110//70
f 131//70 110//70 112//70
f 131//70 112//70 114//70
f 131//70 114//70 116//70
f 131//70 116//70 118//70
f 131//70 118//70 120//70
f 131//70 120//70 122//70
f 131//70 122//70 124//70
f 131//70 124//70 126//70
f 131//70 126//70 128//70
f 131//70 128//70 130//70
f 131//70 130//70 4//70
f 132//71 2//71 1//71
f 132//71 5//71 2//71
f 132//71 7//71 5//71
f 132//71 9//71 7//71
f 132//71 11//71 9//71
f 132//71 13//71 11//71
f 132//71 15//71 13//71
f 132//71 17//71 15//71
f 132//71 19//71 17//71
f 21//71 19//71 132//71
f 23//71 21//71 132//71
f 25//71 23//71 132//71
f 27//71 25//71 132//71
f 29//71 27//71 132//71
f 31//71 29//71 132//71
f 33//71 31//71 132//71
f 135//71 33//71 132//71 35//71 140//71 165//71 166//71 138//71 136//71 167//71 168//71
f 35//71 132//71 37//71
f 37//71 132//71 39//71
f 39//71 132//71 41//71
f 41//71 132//71 43//71
f 43//71 132//71 45//71
f 45//71 132//71 47//71
f 132//71 49//71 47//71
f 132//71 51//71 49//71
f 132//71 53//71 51//71
f 132//71 55//71 53//71
f 132//71 57//71 55//71
f 132//71 59//71 57//71
f 132//71 61//71 59//71
f 132//71 63//71 61//71
f 132//71 65//71 63//71
f 132//71 67//71 65//71
f 132//71 69//71 67//71
f 132//71 71//71 69//71
f 132//71 73//71 71//71
f 132//71 75//71 73//71
f 132//71 77//71 75//71
f 132//71 79//71 77//71
f 132//71 81//71 79//71
f 132//71 83//71 81//71
f 83//71 132//71 85//71
f 85//71 132//71 87//71
f 87//71 132//71 89//71
f 89//71 132//71 91//71
f 91//71 132//71 93//71
f 93//71 132//71 95//71
f 95//71 132//71 97//71
f 97//71 132//71 99//71 148//71 169//71 170//71 149//71 147//71 172//71 171//71 146//71
f 132//71 101//71 99//71
f 132//71 103//71 101//71
f 132//71 105//71 103//71
f 132//71 107//71 105//71
f 132//71 109//71 107//71
f 132//71 111//71 109//71
f 132//71 113//71 111//71
f 132//71 115//71 113//71
f 132//71 117//71 115//71
f 132//71 119//71 117//71
f 132//71 121//71 119//71
f 132//71 123//71 121//71
f 132//71 125//71 123//71
f 132//71 127//71 125//71
f 132//71 129//71 127//71
f 132//71 1//71 129//71
f 156//69 145//69 146//69 171//69 163//69
f 172//72 164//72 163//72 171//72
f 150//73 153//73 164//73 172//73 147//73
f 140//69 133//69 142//69 157//69 165//69
f 139//73 138//73 166//73 158//73 141//73
f 157//74 158//74 166//74 165//74
f 155//69 152//69 149//69 170//69 161//69
f 169//72 162//72 161//72 170//72
f 151//73 154//73 162//73 169//73 148//73
f 136//69 137//69 144//69 159//69 167//69
f 134//73 135//73 168//73 160//73 143//73
f 159//74 160//74 168//74 167//74
o rounded_rect_prism_120x65x94_r10.001
v 0.600000 0.940000 -0.225000
v 0.599519 0.940000 -0.234802
v 0.599519 0.960000 -0.234802
v 0.600000 0.960000 -0.225000
v 0.598079 0.940000 -0.244509
v 0.598079 0.960000 -0.244509
v 0.595694 0.940000 -0.254029
v 0.595694 0.960000 -0.254029
v 0.592388 0.940000 -0.263268
v 0.592388 0.960000 -0.263268
v 0.588192 0.940000 -0.272140
v 0.588192 0.960000 -0.272140
v 0.583147 0.940000 -0.280557
v 0.583147 0.960000 -0.280557
v 0.577301 0.940000 -0.288439
v 0.577301 0.960000 -0.288439
v 0.570711 0.940000 -0.295711
v 0.570711 0.960000 -0.295711
v 0.563439 0.940000 -0.302301
v 0.563439 0.960000 -0.302301
v 0.555557 0.940000 -0.308147
v 0.555557 0.960000 -0.308147
v 0.547140 0.940000 -0.313192
v 0.547140 0.960000 -0.313192
v 0.538269 0.940000 -0.317388
v 0.538269 0.960000 -0.317388
v 0.529029 0.940000 -0.320694
v 0.529029 0.960000 -0.320694
v 0.519509 0.940000 -0.323079
v 0.519509 0.960000 -0.323079
v 0.509802 0.940000 -0.324519
v 0.509802 0.960000 -0.324519
v 0.500000 0.940000 -0.325000
v 0.500000 0.960000 -0.325000
v -0.509802 0.940000 -0.324519
v -0.509802 0.960000 -0.324519
v -0.519509 0.940000 -0.323079
v -0.519509 0.960000 -0.323079
v -0.529029 0.940000 -0.320694
v -0.529029 0.960000 -0.320694
v -0.538269 0.940000 -0.317388
v -0.538269 0.960000 -0.317388
v -0.547140 0.940000 -0.313192
v -0.547140 0.960000 -0.313192
v -0.555557 0.940000 -0.308147
v -0.555557 0.960000 -0.308147
v -0.563439 0.940000 -0.302301
v -0.563439 0.960000 -0.302301
v -0.570711 0.940000 -0.295711
v -0.570711 0.960000 -0.295711
v -0.577301 0.940000 -0.288439
v -0.577301 0.960000 -0.288439
v -0.583147 0.940000 -0.280557
v -0.583147 0.960000 -0.280557
v -0.588192 0.940000 -0.272140
v -0.588192 0.960000 -0.272140
v -0.592388 0.940000 -0.263268
v -0.592388 0.960000 -0.263268
v -0.595694 0.940000 -0.254029
v -0.595694 0.960000 -0.254029
v -0.598079 0.940000 -0.244509
v -0.598079 0.960000 -0.244509
v -0.599519 0.940000 -0.234802
v -0.599519 0.960000 -0.234802
v -0.600000 0.940000 -0.225000
v -0.600000 0.960000 -0.225000
v -0.599519 0.940000 0.234802
v -0.599519 0.960000 0.234802
v -0.598079 0.940000 0.244509
v -0.598079 0.960000 0.244509
v -0.595694 0.940000 0.254029
v -0.595694 0.960000 0.254029
v -0.592388 0.940000 0.263268
v -0.592388 0.960000 0.263268
v -0.588192 0.940000 0.272140
v -0.588192 0.960000 0.272140
v -0.583147 0.940000 0.280557
v -0.583147 0.960000 0.280557
v -0.577301 0.940000 0.288439
v -0.577301 0.960000 0.288439
v -0.570711 0.940000 0.295711
v -0.570711 0.960000 0.295711
v -0.563439 0.940000 0.302301
v -0.563439 0.960000 0.302301
v -0.555557 0.940000 0.308147
v -0.555557 0.960000 0.308147
v -0.547140 0.940000 0.313192
v -0.547140 0.960000 0.313192
v -0.538269 0.940000 0.317388
v -0.538269 0.960000 0.317388
v -0.529029 0.940000 0.320694
v -0.529029 0.960000 0.320694
v -0.519509 0.940000 0.323079
v -0.519509 0.960000 0.323079
v -0.509802 0.940000 0.324519
v -0.509802 0.960000 0.324519
v -0.500000 0.940000 0.325000
v -0.500000 0.960000 0.325000
v 0.509802 0.940000 0.324519
v 0.509802 0.960000 0.324519
v 0.519509 0.940000 0.323079
v 0.519509 0.960000 0.323079
v 0.529029 0.940000 0.320694
v 0.529029 0.960000 0.320694
v 0.538269 0.940000 0.317388
v 0.538269 0.960000 0.317388
v 0.547140 0.940000 0.313192
v 0.547140 0.960000 0.313192
v 0.555557 0.940000 0.308147
v 0.555557 0.960000 0.308147
v 0.563439 0.940000 0.302301
v 0.563439 0.960000 0.302301
v 0.570711 0.940000 0.295711
v 0.570711 0.960000 0.295711
v 0.577301 0.940000 0.288439
v 0.577301 0.960000 0.288439
v 0.583147 0.940000 0.280557
v 0.583147 0.960000 0.280557
v 0.588192 0.940000 0.272140
v 0.588192 0.960000 0.272140
v 0.592388 0.940000 0.263268
v 0.592388 0.960000 0.263268
v 0.595694 0.940000 0.254029
v 0.595694 0.960000 0.254029
v 0.598079 0.940000 0.244509
v 0.598079 0.960000 0.244509
v 0.599519 0.940000 0.234802
v 0.599519 0.960000 0.234802
v 0.600000 0.940000 0.225000
v 0.600000 0.960000 0.225000
v 0.000000 0.960000 0.000000
v 0.000000 0.940000 0.000000
vn 0.9988 -0.0000 -0.0491
vn 0.9892 -0.0000 -0.1467
vn 0.9700 -0.0000 -0.2430
vn 0.9415 -0.0000 -0.3369
vn 0.9040 -0.0000 -0.4276
vn 0.8577 -0.0000 -0.5141
vn 0.8032 -0.0000 -0.5957
vn 0.7409 -0.0000 -0.6716
vn 0.7410 -0.0000 -0.6716
vn 0.6716 -0.0000 -0.7410
vn 0.5957 -0.0000 -0.8032
vn 0.5141 -0.0000 -0.8577
vn 0.4276 -0.0000 -0.9040
vn 0.3369 -0.0000 -0.9415
vn 0.2430 -0.0000 -0.9700
vn 0.1467 -0.0000 -0.9892
vn 0.0491 -0.0000 -0.9988
vn -0.0005 -0.0000 -1.0000
vn -0.1467 -0.0000 -0.9892
vn -0.2430 -0.0000 -0.9700
vn -0.3369 -0.0000 -0.9415
vn -0.4276 -0.0000 -0.9040
vn -0.5141 -0.0000 -0.8577
vn -0.5957 -0.0000 -0.8032
vn -0.6716 -0.0000 -0.7410
vn -0.7410 -0.0000 -0.6716
vn -0.7409 -0.0000 -0.6716
vn -0.8032 -0.0000 -0.5957
vn -0.8577 -0.0000 -0.5141
vn -0.9040 -0.0000 -0.4276
vn -0.9415 -0.0000 -0.3369
vn -0.9700 -0.0000 -0.2430
vn -0.9892 -0.0000 -0.1467
vn -0.9988 -0.0000 -0.0491
vn -1.0000 -0.0000 0.0010
vn -0.9892 -0.0000 0.1467
vn -0.9700 -0.0000 0.2430
vn -0.9415 -0.0000 0.3369
vn -0.9040 -0.0000 0.4276
vn -0.8577 -0.0000 0.5141
vn -0.8032 -0.0000 0.5957
vn -0.7409 -0.0000 0.6716
vn -0.7410 -0.0000 0.6716
vn -0.6716 -0.0000 0.7410
vn -0.5957 -0.0000 0.8032
vn -0.5141 -0.0000 0.8577
vn -0.4276 -0.0000 0.9040
vn -0.3369 -0.0000 0.9415
vn -0.2430 -0.0000 0.9700
vn -0.1467 -0.0000 0.9892
vn -0.0491 -0.0000 0.9988
vn 0.0005 -0.0000 1.0000
vn 0.1467 -0.0000 0.9892
vn 0.2430 -0.0000 0.9700
vn 0.3369 -0.0000 0.9415
vn 0.4276 -0.0000 0.9040
vn 0.5141 -0.0000 0.8577
vn 0.5957 -0.0000 0.8032
vn 0.6716 -0.0000 0.7410
vn 0.7410 -0.0000 0.6716
vn 0.7409 -0.0000 0.6716
vn 0.8032 -0.0000 0.5957
vn 0.8577 -0.0000 0.5141
vn 0.9040 -0.0000 0.4276
vn 0.9415 -0.0000 0.3369
vn 0.9700 -0.0000 0.2430
vn 0.9892 -0.0000 0.1467
vn 0.9988 -0.0000 0.0491
vn 1.0000 -0.0000 -0.0000
vn -0.0000 1.0000 -0.0000
vn -0.0000 -1.0000 -0.0000
s 0
f 173//75 174//75 175//75
f 173//75 175//75 176//75
f 174//76 177//76 178//76
f 174//76 178//76 175//76
f 177//77 179//77 180//77
f 177//77 180//77 178//77
f 179//78 181//78 182//78
f 179//78 182//78 180//78
f 181//79 183//79 184//79
f 181//79 184//79 182//79
f 183//80 185//80 186//80
f 183//80 186//80 184//80
f 185//81 187//81 188//81
f 185//81 188//81 186//81
f 187//82 189//82 190//82
f 187//83 190//83 188//83
f 189//84 191//84 192//84
f 189//84 192//84 190//84
f 191//85 193//85 194//85
f 191//85 194//85 192//85
f 193//86 195//86 196//86
f 193//86 196//86 194//86
f 195//87 197//87 198//87
f 195//87 198//87 196//87
f 197//88 199//88 200//88
f 197//88 200//88 198//88
f 199//89 201//89 202//89
f 199//89 202//89 200//89
f 201//90 203//90 204//90
f 201//90 204//90 202//90
f 203//91 205//91 206//91
f 203//91 206//91 204//91
f 205//92 207//92 208//92
f 205//92 208//92 206//92
f 207//93 209//93 210//93
f 207//93 210//93 208//93
f 209//94 211//94 212//94
f 209//94 212//94 210//94
f 211//95 213//95 214//95
f 211//95 214//95 212//95
f 213//96 215//96 216//96
f 213//96 216//96 214//96
f 215//97 217//97 218//97
f 215//97 218//97 216//97
f 217//98 219//98 220//98
f 217//98 220//98 218//98
f 219//99 221//99 222//99
f 219//99 222//99 220//99
f 221//100 223//100 224//100
f 221//101 224//101 222//101
f 223//102 225//102 226//102
f 223//102 226//102 224//102
f 225//103 227//103 228//103
f 225//103 228//103 226//103
f 227//104 229//104 230//104
f 227//104 230//104 228//104
f 229//105 231//105 232//105
f 229//105 232//105 230//105
f 231//106 233//106 234//106
f 231//106 234//106 232//106
f 233//107 235//107 236//107
f 233//107 236//107 234//107
f 235//108 237//108 238//108
f 235//108 238//108 236//108
f 237//109 239//109 240//109
f 237//109 240//109 238//109
f 239//110 241//110 242//110
f 239//110 242//110 240//110
f 241//111 243//111 244//111
f 241//111 244//111 242//111
f 243//112 245//112 246//112
f 243//112 246//112 244//112
f 245//113 247//113 248//113
f 245//113 248//113 246//113
f 247//114 249//114 250//114
f 247//114 250//114 248//114
f 249//115 251//115 252//115
f 249//115 252//115 250//115
f 251//116 253//116 254//116
f 251//117 254//117 252//117
f 253//118 255//118 256//118
f 253//118 256//118 254//118
f 255//119 257//119 258//119
f 255//119 258//119 256//119
f 257//120 259//120 260//120
f 257//120 260//120 258//120
f 259//121 261//121 262//121
f 259//121 262//121 260//121
f 261//122 263//122 264//122
f 261//122 264//122 262//122
f 263//123 265//123 266//123
f 263//123 266//123 264//123
f 265//124 267//124 268//124
f 265//124 268//124 266//124
f 267//125 269//125 270//125
f 267//125 270//125 268//125
f 269//126 271//126 272//126
f 269//126 272//126 270//126
f 271//127 273//127 274//127
f 271//127 274//127 272//127
f 273//128 275//128 276//128
f 273//128 276//128 274//128
f 275//129 277//129 278//129
f 275//129 278//129 276//129
f 277//130 279//130 280//130
f 277//130 280//130 278//130
f 279//131 281//131 282//131
f 279//131 282//131 280//131
f 281//132 283//132 284//132
f 281//132 284//132 282//132
f 283//133 285//133 286//133
f 283//133 286//133 284//133
f 285//134 287//134 288//134
f 285//135 288//135 286//135
f 287//136 289//136 290//136
f 287//136 290//136 288//136
f 289//137 291//137 292//137
f 289//137 292//137 290//137
f 291//138 293//138 294//138
f 291//138 294//138 292//138
f 293//139 295//139 296//139
f 293//139 296//139 294//139
f 295//140 297//140 298//140
f 295//140 298//140 296//140
f 297//141 299//141 300//141
f 297//141 300//141 298//141
f 299//142 301//142 302//142
f 299//142 302//142 300//142
f 301//143 173//143 176//143
f 301//143 176//143 302//143
f 303//144 176//144 175//144
f 303//144 175//144 178//144
f 303//144 178//144 180//144
f 303//144 180//144 182//144
f 303//144 182//144 184//144
f 303//144 184//144 186//144
f 303//144 186//144 188//144
f 303//144 188//144 190//144
f 303//144 190//144 192//144
f 303//144 192//144 194//144
f 303//144 194//144 196//144
f 303//144 196//144 198//144
f 303//144 198//144 200//144
f 303//144 200//144 202//144
f 303//144 202//144 204//144
f 303//144 204//144 206//144
f 303//144 206//144 208//144
f 303//144 208//144 210//144
f 303//144 210//144 212//144
f 303//144 212//144 214//144
f 303//144 214//144 216//144
f 303//144 216//144 218//144
f 303//144 218//144 220//144
f 303//144 220//144 222//144
f 303//144 222//144 224//144
f 303//144 224//144 226//144
f 303//144 226//144 228//144
f 303//144 228//144 230//144
f 303//144 230//144 232//144
f 303//144 232//144 234//144
f 303//144 234//144 236//144
f 303//144 236//144 238//144
f 303//144 238//144 240//144
f 303//144 240//144 242//144
f 303//144 242//144 244//144
f 303//144 244//144 246//144
f 303//144 246//144 248//144
f 303//144 248//144 250//144
f 303//144 250//144 252//144
f 303//144 252//144 254//144
f 303//144 254//144 256//144
f 303//144 256//144 258//144
f 303//144 258//144 260//144
f 303//144 260//144 262//144
f 303//144 262//144 264//144
f 303//144 264//144 266//144
f 303//144 266//144 268//144
f 303//144 268//144 270//144
f 303//144 270//144 272//144
f 303//144 272//144 274//144
f 303//144 274//144 276//144
f 303//144 276//144 278//144
f 303//144 278//144 280//144
f 303//144 280//144 282//144
f 303//144 282//144 284//144
f 303//144 284//144 286//144
f 303//144 286//144 288//144
f 303//144 288//144 290//144
f 303//144 290//144 292//144
f 303//144 292//144 294//144
f 303//144 294//144 296//144
f 303//144 296//144 298//144
f 303//144 298//144 300//144
f 303//144 300//144 302//144
f 303//144 302//144 176//144
f 304//145 174//145 173//145
f 304//145 177//145 174//145
f 304//145 179//145 177//145
f 304//145 181//145 179//145
f 304//145 183//145 181//145
f 304//145 185//145 183//145
f 304//145 187//145 185//145
f 304//145 189//145 187//145
f 304//145 191//145 189//145
f 304//145 193//145 191//145
f 304//145 195//145 193//145
f 304//145 197//145 195//145
f 304//145 199//145 197//145
f 304//145 201//145 199//145
f 304//145 203//145 201//145
f 304//145 205//145 203//145
f 304//145 207//145 205//145
f 304//145 209//145 207//145
f 304//145 211//145 209//145
f 304//145 213//145 211//145
f 304//145 215//145 213//145
f 304//145 217//145 215//145
f 304//145 219//145 217//145
f 304//145 221//145 219//145
f 304//145 223//145 221//145
f 304//145 225//145 223//145
f 304//145 227//145 225//145
f 304//145 229//145 227//145
f 304//145 231//145 229//145
f 304//145 233//145 231//145
f 304//145 235//145 233//145
f 304//145 237//145 235//145
f 304//145 239//145 237//145
f 304//145 241//145 239//145
f 304//145 243//145 241//145
f 304//145 245//145 243//145
f 304//145 247//145 245//145
f 304//145 249//145 247//145
f 304//145 251//145 249//145
f 304//145 253//145 251//145
f 304//145 255//145 253//145
f 304//145 257//145 255//145
f 304//145 259//145 257//145
f 304//145 261//145 259//145
f 304//145 263//145 261//145
f 304//145 265//145 263//145
f 304//145 267//145 265//145
f 304//145 269//145 267//145
f 304//145 271//145 269//145
f 304//145 273//145 271//145
f 304//145 275//145 273//145
f 304//145 277//145 275//145
f 304//145 279//145 277//145
f 304//145 281//145 279//145
f 304//145 283//145 281//145
f 304//145 285//145 283//145
f 304//145 287//145 285//145
f 304//145 289//145 287//145
f 304//145 291//145 289//145
f 304//145 293//145 291//145
f 304//145 295//145 293//145
f 304//145 297//145 295//145
f 304//145 299//145 297//145
f 304//145 301//145 299//145
f 304//145 173//145 301//145
